<svg aria-hidden="true" style="position: absolute; width: 0; height: 0; overflow: hidden;" version="1.1" xmlns="http://www.w3.org/2000/svg" xmlns:xlink="http://www.w3.org/1999/xlink">
<defs>
<symbol id="link" viewBox="0 0 32 32">
<path d="M29.65 2.301c-1.458-1.446-3.465-2.34-5.682-2.34s-4.224 0.894-5.682 2.34l0.001-0.001-6.136 6.148c0.761-0.226 1.635-0.356 2.539-0.356 1.393 0 2.713 0.308 3.897 0.861l-0.057-0.024 3.19-3.184c0.571-0.551 1.35-0.891 2.207-0.891 1.757 0 3.18 1.424 3.18 3.181 0 0.858-0.34 1.636-0.892 2.208l0.001-0.001-4.010 4.016-2.636 2.625c-0.574 0.578-1.37 0.936-2.249 0.936s-1.674-0.358-2.248-0.936l-0-0-3.433 3.444c0.749 0.749 1.649 1.349 2.649 1.749l0.053 0.019c0.883 0.36 1.908 0.568 2.982 0.568 1.901 0 3.65-0.655 5.033-1.751l-0.017 0.013c0.244-0.19 0.46-0.386 0.662-0.596l0.002-0.002 6.646-6.655c1.458-1.454 2.359-3.465 2.359-5.686s-0.902-4.232-2.359-5.686l-0-0zM13.324 23.136l-3.057 3.067c-0.571 0.551-1.35 0.891-2.207 0.891-1.757 0-3.181-1.424-3.181-3.18 0-0.858 0.34-1.636 0.892-2.208l-0.001 0.001 6.646-6.655c0.577-0.572 1.371-0.926 2.249-0.926s1.672 0.354 2.249 0.926l-0-0 3.434-3.431c-0.747-0.757-1.647-1.361-2.65-1.762l-0.052-0.018c-0.882-0.36-1.905-0.57-2.978-0.57-2.068 0-3.955 0.778-5.382 2.058l0.008-0.007c-0.111 0.096-0.213 0.194-0.309 0.297l-0.002 0.002-6.646 6.642c-1.456 1.455-2.357 3.466-2.357 5.686 0 4.44 3.599 8.039 8.039 8.039 2.219 0 4.228-0.899 5.683-2.353l-0 0 6.002-6.070c-3.051 0.702-3.767 0.624-6.38-0.429z"></path>
</symbol>
<symbol id="lupa" viewBox="0 0 33 32">
<path d="M13.756 5.087c-0.045-0.004-0.097-0.007-0.149-0.007-0.939 0-1.7 0.761-1.7 1.7s0.761 1.7 1.7 1.7c0.052 0 0.104-0.002 0.156-0.007l-0.007 0c0.009-0 0.021-0 0.032-0 2.122 0 3.96 1.216 4.855 2.99l0.014 0.031c0.292 0.571 0.876 0.955 1.55 0.955 0.272 0 0.53-0.063 0.759-0.175l-0.010 0.005c0.576-0.274 0.967-0.852 0.967-1.52 0-0.27-0.064-0.525-0.177-0.752l0.004 0.010c-1.474-2.944-4.468-4.93-7.925-4.93-0.024 0-0.048 0-0.072 0l0.004-0zM32.263 28.365l-5.732-5.649c1.688-2.302 2.702-5.191 2.704-8.317v-0.001c0.001-0.054 0.001-0.117 0.001-0.18 0-8.059-6.533-14.592-14.592-14.592s-14.592 6.533-14.592 14.592c0 8.059 6.533 14.592 14.592 14.592 3.369 0 6.471-1.141 8.94-3.059l-0.033 0.025 5.669 5.584c0.39 0.388 0.927 0.628 1.521 0.628s1.131-0.24 1.521-0.628l-0 0c0.391-0.381 0.633-0.912 0.633-1.5 0-0.585-0.24-1.115-0.628-1.494l-0-0zM3.431 14.398c0.135-6.072 5.090-10.942 11.181-10.942s11.046 4.87 11.181 10.929l0 0.013c-0.016 3.369-1.546 6.377-3.944 8.381l-0.017 0.014c-1.932 1.632-4.451 2.624-7.202 2.624-6.121 0-11.095-4.912-11.194-11.010l-0-0.009z"></path>
</symbol>
</defs>
</svg>
